ffmpeg started on 2016-11-28 at 08:24:05
Report written to "Output/NVENCh264/results/ffmpeg/crowd_run_2160p50llhp14000k.log"
Command line:
Tools/ffmpeg/ffmpeg -benchmark -y -i Input/y4m/crowd_run_2160p50.y4m -c:v h264_nvenc -preset llhp -b:v 14000k -an Output/NVENCh264/encoded/crowd_run_2160p50llhp14000k.mkv
ffmpeg version N-82227-gdb23fde Copyright (c) 2000-2016 the FFmpeg developers
  built with gcc 5.4.0 (Ubuntu 5.4.0-6ubuntu1~16.04.2) 20160609
  configuration: --prefix=/home/jaroslav/ffmpeg_build --pkg-config-flags=--static --extra-cflags=-I/home/jaroslav/ffmpeg_build/include --extra-ldflags=-L/home/jaroslav/ffmpeg_build/lib --bindir=/home/jaroslav/bin --enable-gpl --enable-libass --enable-libfdk-aac --enable-libfreetype --enable-libmp3lame --enable-libopus --enable-libtheora --enable-libvorbis --enable-libvpx --enable-libx264 --enable-libx265 --enable-nvenc --enable-libmfx --enable-libxvid --enable-libgsm --enable-libopencore-amrnb --enable-version3 --enable-nonfree
  libavutil      55. 35.100 / 55. 35.100
  libavcodec     57. 66.101 / 57. 66.101
  libavformat    57. 57.100 / 57. 57.100
  libavdevice    57.  2.100 / 57.  2.100
  libavfilter     6. 66.100 /  6. 66.100
  libswscale      4.  3.100 /  4.  3.100
  libswresample   2.  4.100 /  2.  4.100
  libpostproc    54.  2.100 / 54.  2.100
Input #0, yuv4mpegpipe, from 'Input/y4m/crowd_run_2160p50.y4m':
  Duration: 00:00:10.00, start: 0.000000, bitrate: 4976642 kb/s
    Stream #0:0: Video: rawvideo (I420 / 0x30323449), yuv420p(progressive), 3840x2160, SAR 1:1 DAR 16:9, 50 fps, 50 tbr, 50 tbn, 50 tbc
[h264_nvenc @ 0x2f731c0] The variable bitrate rate-control requires the 'qmin' and/or 'qmax' option set.
Output #0, matroska, to 'Output/NVENCh264/encoded/crowd_run_2160p50llhp14000k.mkv':
  Metadata:
    encoder         : Lavf57.57.100
    Stream #0:0: Video: h264 (h264_nvenc) (Main) (H264 / 0x34363248), yuv420p, 3840x2160 [SAR 1:1 DAR 16:9], q=-1--1, 14000 kb/s, 50 fps, 1k tbn, 50 tbc
    Metadata:
      encoder         : Lavc57.66.101 h264_nvenc
    Side data:
      cpb: bitrate max/min/avg: 0/0/14000000 buffer size: 28000000 vbv_delay: -1
Stream mapping:
  Stream #0:0 -> #0:0 (rawvideo (native) -> h264 (h264_nvenc))
Press [q] to stop, [?] for help
frame=   10 fps=0.0 q=0.0 size=       0kB time=00:00:00.00 bitrate=N/A speed=   0x    frame=   21 fps= 19 q=0.0 size=       0kB time=00:00:00.00 bitrate=N/A speed=   0x    frame=   33 fps= 20 q=43.0 size=       1kB time=00:00:00.04 bitrate= 146.0kbits/s speed=0.0248x    frame=   51 fps= 23 q=41.0 size=       1kB time=00:00:00.40 bitrate=  14.9kbits/s speed=0.185x    frame=   69 fps= 26 q=41.0 size=       1kB time=00:00:00.76 bitrate=   7.9kbits/s speed=0.283x    frame=   87 fps= 27 q=41.0 size=       1kB time=00:00:01.12 bitrate=   5.3kbits/s speed=0.349x    frame=  105 fps= 28 q=40.0 size=       1kB time=00:00:01.48 bitrate=   4.0kbits/s speed=0.396x    frame=  115 fps= 15 q=41.0 size=       1kB time=00:00:01.68 bitrate=   3.6kbits/s speed=0.219x    frame=  116 fps= 12 q=40.0 size=       1kB time=00:00:01.70 bitrate=   3.5kbits/s speed=0.181x    frame=  134 fps= 13 q=40.0 size=       1kB time=00:00:02.06 bitrate=   2.9kbits/s speed=0.208x    frame=  152 fps= 15 q=41.0 size=       1kB time=00:00:02.42 bitrate=   2.5kbits/s speed=0.231x    frame=  168 fps= 15 q=41.0 size=       1kB time=00:00:02.74 bitrate=   2.2kbits/s speed=0.246x    frame=  185 fps= 16 q=41.0 size=    5126kB time=00:00:03.08 bitrate=13629.7kbits/s speed=0.264x    frame=  202 fps= 17 q=40.0 size=    5126kB time=00:00:03.42 bitrate=12275.1kbits/s speed=0.281x    frame=  219 fps= 17 q=41.0 size=    5126kB time=00:00:03.76 bitrate=11165.4kbits/s speed=0.296x    frame=  237 fps= 18 q=41.0 size=    5126kB time=00:00:04.12 bitrate=10190.0kbits/s speed=0.312x    frame=  255 fps= 19 q=41.0 size=    5126kB time=00:00:04.48 bitrate=9371.4kbits/s speed=0.326x    frame=  271 fps= 19 q=41.0 size=    5126kB time=00:00:04.80 bitrate=8746.8kbits/s speed=0.333x    frame=  288 fps= 19 q=42.0 size=    8544kB time=00:00:05.14 bitrate=13615.3kbits/s speed=0.345x    frame=  306 fps= 20 q=41.0 size=    8544kB time=00:00:05.50 bitrate=12724.3kbits/s speed=0.357x    frame=  324 fps= 20 q=41.0 size=    8544kB time=00:00:05.86 bitrate=11942.8kbits/s speed=0.367x    frame=  335 fps= 20 q=41.0 size=    8544kB time=00:00:06.08 bitrate=11510.7kbits/s speed=0.37x    frame=  353 fps= 21 q=41.0 size=    8544kB time=00:00:06.44 bitrate=10867.3kbits/s speed=0.379x    frame=  362 fps= 21 q=41.0 size=    8544kB time=00:00:06.62 bitrate=10571.9kbits/s speed=0.378x    frame=  377 fps= 21 q=40.0 size=    8544kB time=00:00:06.92 bitrate=10113.6kbits/s speed=0.384x    frame=  395 fps= 21 q=40.0 size=    8544kB time=00:00:07.28 bitrate=9613.6kbits/s speed=0.393x    frame=  406 fps= 21 q=40.0 size=    8544kB time=00:00:07.50 bitrate=9331.6kbits/s speed=0.394x    frame=  424 fps= 22 q=41.0 size=    8544kB time=00:00:07.86 bitrate=8904.3kbits/s speed=0.402x    frame=  437 fps= 22 q=41.0 size=   13689kB time=00:00:08.12 bitrate=13808.9kbits/s speed=0.404x    frame=  455 fps= 22 q=41.0 size=   13689kB time=00:00:08.48 bitrate=13222.7kbits/s speed=0.411x    frame=  473 fps= 22 q=41.0 size=   13689kB time=00:00:08.84 bitrate=12684.3kbits/s speed=0.418x    frame=  491 fps= 23 q=41.0 size=   13689kB time=00:00:09.20 bitrate=12188.0kbits/s speed=0.425x    frame=  500 fps= 23 q=40.0 Lsize=   17087kB time=00:00:09.98 bitrate=14024.3kbits/s speed=0.455x    
video:17082kB audio:0kB subtitle:0kB other streams:0kB global headers:0kB muxing overhead: 0.027881%
bench: utime=1.204s
bench: maxrss=1414164kB
